<svg width="37" height="37" viewBox="0 0 37 37" fill="none" xmlns="http://www.w3.org/2000/svg">
<g clip-path="url(#clip0_2_636)">
<path d="M31.2188 27.1141C31.2188 34.1094 25.5531 34.1094 18.5 34.1094C11.4469 34.1094 5.78125 34.1094 5.78125 27.1141C5.78125 20.1188 11.5047 8.67188 18.5 8.67188C25.4953 8.67188 31.2188 20.0609 31.2188 27.1141Z" fill="#DBB471"/>
<path opacity="0.5" d="M31.2187 27.1141C31.2187 24.7438 30.5828 21.8531 29.4265 19.0781C29.6578 20.8703 29.1953 24.05 23.7031 25.2641C15.8984 26.9406 19.9453 29.1375 16.8812 29.4266C14.2796 29.6578 7.34214 28.6172 5.95464 24.6859C5.83901 25.5531 5.72339 26.3625 5.72339 27.1719C5.7812 34.1094 11.5046 34.1094 18.5 34.1094C25.4953 34.1094 31.2187 34.1094 31.2187 27.1141Z" fill="#89664C"/>
<path d="M21.9109 23.7609C21.6796 22.6047 20.6968 22.2578 19.6562 22.2V20.5812C19.9453 20.6968 20.2921 20.8703 20.5234 21.0437C20.9859 21.3328 21.4484 20.5812 20.9859 20.2922C20.5812 20.0609 20.1187 19.8297 19.6562 19.6562V17.7484C19.6562 17.1703 18.789 17.1703 18.789 17.7484V19.425C18.3265 19.3672 17.864 19.3672 17.4015 19.425C17.3437 19.0203 17.2281 18.6156 17.1125 18.2109C16.9968 17.6328 16.1296 17.864 16.3031 18.4422C16.4187 18.8468 16.4765 19.2515 16.5921 19.6562C16.5343 19.6562 16.5343 19.6562 16.4765 19.714C15.3203 20.1765 14.5687 21.3328 15.4359 22.4312C15.8406 22.9515 16.3609 23.125 16.939 23.2406C16.9968 23.9922 16.9968 24.7437 16.9968 25.4953C16.5921 25.264 16.2453 24.9172 15.9562 24.6281C15.5515 24.2234 14.9734 24.8594 15.3203 25.264C15.8406 25.8422 16.4187 26.2469 16.9968 26.5359C16.9968 27.1719 17.0546 27.8078 17.1125 28.4437C17.1703 29.0219 18.0375 29.0219 17.9796 28.4437C17.9218 27.8656 17.864 27.3453 17.864 26.7672C18.2109 26.825 18.5578 26.825 18.9046 26.825C18.9625 27.4031 19.0203 27.9812 19.0781 28.6172C19.1359 29.1953 20.0031 29.1953 19.9453 28.6172C19.8875 27.9812 19.8296 27.3453 19.7718 26.6515C21.0437 26.189 22.2 25.2062 21.9109 23.7609ZM18.789 20.2922V22.2C18.5 22.2 18.2687 22.2578 18.0375 22.2578H17.7484L17.575 20.1765C17.9796 20.1765 18.3843 20.2343 18.789 20.2922ZM16.7078 22.1422C16.4765 22.0843 16.2453 21.9109 16.014 21.7375C15.4937 21.2172 16.2453 20.7547 16.7078 20.5234C16.7656 21.1015 16.8234 21.6219 16.8812 22.2C16.8234 22.2 16.7656 22.2 16.7078 22.1422ZM18.6156 25.8422C18.3265 25.9 18.0953 25.8422 17.864 25.7843C17.8062 24.9172 17.8062 24.05 17.8062 23.125C18.1531 23.125 18.5 23.0672 18.8468 23.0672C18.8468 23.9922 18.9046 24.8593 18.9046 25.7843C18.789 25.8422 18.7312 25.8422 18.6156 25.8422ZM20.5234 25.2062C20.2921 25.3797 20.0031 25.4953 19.7718 25.6109C19.714 24.7437 19.714 23.9344 19.714 23.0672H20.0031C21.1015 23.2984 21.3906 24.5125 20.5234 25.2062Z" fill="#89664C"/>
<path d="M19.6562 31.7969H18.3265V34.1094L23.7031 37L35.8437 33.2422V31.2188L31.3922 28.6172L19.6562 31.7969Z" fill="#699635"/>
<path d="M18.5 30.4672C18.5 30.4672 19.8875 32.7219 23.8188 34.6875C23.8188 34.6875 29.9469 34.3984 35.8438 30.4672C35.8438 30.4672 32.4328 28.7906 31.45 26.5938C31.45 26.5938 29.1375 29.8313 18.5 30.4672Z" fill="#83BF4F"/>
<path d="M15.8985 31.7391L17.1704 31.6813L17.3438 33.8203L12.3141 37L0.231299 34.3985L0.0578613 32.4907L4.16255 29.6578L15.8985 31.7391Z" fill="#699635"/>
<path d="M16.8813 30.4094C16.8813 30.4094 15.6672 32.6641 12.025 34.8031C12.025 34.8031 6.07031 34.9766 0 31.7969C0 31.7969 3.2375 29.9469 3.98906 27.75C3.98906 27.75 6.53281 30.6406 16.8813 30.4094Z" fill="#83BF4F"/>
<path d="M13.9907 31.0453C13.9907 31.0453 13.8172 31.5078 14.6266 31.5656L12.4875 33.3578C12.4875 33.3578 11.2156 33.2422 10.9266 34.1094C10.9266 34.1094 5.72346 33.5313 2.37034 32.0281C2.37034 32.0281 3.06409 31.5078 2.1969 31.161C2.1969 31.161 3.17971 30.4672 3.41096 29.8313C3.41096 29.8313 4.33596 29.9469 4.62502 29.2531C4.74065 29.1953 8.2094 31.2766 13.9907 31.0453V31.0453Z" stroke="#699635" stroke-miterlimit="10"/>
<path d="M5.08745 31.8547C5.6941 31.8547 6.18589 31.5182 6.18589 31.1031C6.18589 30.688 5.6941 30.3516 5.08745 30.3516C4.4808 30.3516 3.98901 30.688 3.98901 31.1031C3.98901 31.5182 4.4808 31.8547 5.08745 31.8547Z" fill="#699635"/>
<path d="M10.9844 30.1781C10.9844 30.1781 9.65471 31.9125 6.76409 34.2828L6.93752 35.8438L4.91409 35.3813L4.79846 33.7047C4.79846 33.7047 7.7469 30.9875 8.38284 29.6578C8.32502 29.6578 9.36565 30.0047 10.9844 30.1781ZM24.3391 29.7734C24.3391 29.7734 24.8594 31.1609 28.7906 33.7047V35.3813L31.0453 34.6875V32.9531C31.0453 32.9531 28.3281 31.0453 26.7094 29.1375L24.3391 29.7734Z" fill="#F9F3D9"/>
<path d="M21.0438 27.9234L19.7719 27.8656L19.6562 30.2359L24.8016 33.5312L36.8844 30.2359L36.9422 28.1547L32.7219 25.2062L21.0438 27.9234Z" fill="#699635"/>
<path d="M20.0032 26.4781C20.0032 26.4781 21.275 28.9062 25.0329 31.1031C25.0329 31.1031 31.0454 31.1031 37 27.4031C37 27.4031 33.7047 25.4953 32.8954 23.125C32.8954 23.125 30.4094 26.3625 20.0032 26.4781Z" fill="#83BF4F"/>
<path d="M22.6047 27.1141C22.6047 27.1141 22.8938 27.5766 21.9688 27.75L24.3969 29.6578C24.3969 29.6578 25.7844 29.3109 26.2469 30.1203C26.2469 30.1203 32.0281 29.0797 34.6875 27.6922C34.6875 27.6922 33.8203 27.2875 34.6875 26.7672C34.6875 26.7672 33.6469 25.9 33.2422 25.3219C33.2422 25.3219 32.2594 25.6109 31.7391 24.9172C31.7391 24.975 29.6578 26.825 22.6047 27.1141V27.1141Z" stroke="#699635" stroke-miterlimit="10"/>
<path d="M27.0563 28.5594C26.825 28.8485 26.0735 28.9641 25.4375 28.7906C24.8016 28.6172 24.5125 28.2125 24.7438 27.9235C24.975 27.6344 25.7266 27.5188 26.3625 27.6922C26.9985 27.8656 27.2875 28.2125 27.0563 28.5594Z" fill="#699635"/>
<path d="M25.9 26.0156C25.9 26.0156 27.2875 27.8656 30.236 30.3516L30.1782 32.0859L32.2016 31.5078L32.2594 29.6578C32.2594 29.6578 29.2531 26.7672 28.5016 25.3797C28.5594 25.3797 27.5766 25.7844 25.9 26.0156Z" fill="#F9F3D9"/>
<path d="M26.5938 1.15625C26.5938 4.68281 22.0266 10.4062 18.5 10.4062C14.9734 10.4062 10.4062 5.26094 10.4062 1.73438C10.4062 -1.79219 10.9266 1.73438 14.4531 1.73438C14.9734 1.73438 17.4016 0 18.5 0C19.2516 0 21.3906 1.73438 22.5469 1.73438C25.6109 1.73438 26.5938 -1.50312 26.5938 1.15625Z" fill="#DBB471"/>
<path d="M17.4593 7.68903C17.1125 7.92028 15.4359 7.74685 14.9156 8.15153C14.2218 8.67185 15.2047 9.88591 14.5109 10.6375C13.1234 12.025 12.025 13.5859 12.3718 14.4531C12.95 15.9562 14.0484 11.6781 15.0312 13.2968C16.014 14.9156 15.8406 12.1984 17.3437 13.5859C18.8468 14.9734 17.575 11.1 19.0203 12.7765C20.4656 14.4531 20.5234 16.3609 21.564 16.3609C22.7781 16.3609 20.2922 11.7937 21.9109 12.8922C23.5297 13.9906 25.3218 13.5859 23.7031 11.9093C23.1828 11.389 22.489 10.464 21.6797 9.65466C21.3906 9.3656 21.6218 7.86247 21.3328 7.63122C20.9859 7.34216 20.1187 8.26716 19.7718 8.09372C19.0781 7.74684 19.3093 8.38278 18.2687 8.55622C17.575 8.78747 18.1531 7.22653 17.4593 7.68903Z" fill="#89664C"/>
<path d="M10.8109 11.1C13.0656 8.96092 17.1703 10.175 19.5984 11.2156C21.9687 12.2562 23.414 8.96092 21.9109 7.28435C21.0437 6.30154 19.6562 7.45779 19.1359 8.15154C18.5578 8.84529 18.0953 9.59685 17.4593 10.2906C16.5343 11.3312 14.2797 10.464 14.9734 9.01873C15.725 7.5156 18.9047 9.24998 19.9453 9.53904C21.9687 10.1172 24.1078 10.3484 26.1312 9.59685C26.825 9.3656 26.5359 8.20935 25.8422 8.49842C23.5875 9.30779 21.3328 8.78748 19.1937 8.09373C18.0953 7.74685 16.3609 6.82185 15.2047 7.34217C11.9093 8.9031 14.9734 13.3547 17.7484 11.6203C18.3843 11.2156 18.789 10.5797 19.2515 10.0015C19.5406 9.65467 20.9859 7.45779 21.3328 8.55623C21.5062 9.13435 21.3328 10.175 20.6968 10.3484C20.2922 10.5219 19.4828 9.94373 19.0781 9.8281C18.3265 9.53904 17.575 9.30779 16.7656 9.13435C14.6265 8.67185 11.7359 8.78748 10.0593 10.3484C9.48122 10.8109 10.2906 11.6203 10.8109 11.1Z" fill="#E8E8E8"/>
<path d="M25.9 0.289062C25.3219 0.751563 24.2812 1.73438 22.5469 1.73438C21.3906 1.73438 19.2516 0 18.5 0C17.4016 0 14.9734 1.73438 14.4531 1.73438C12.5453 1.73438 11.5047 0.751563 10.9844 0.346875C10.9844 0.346875 11.6203 2.94844 13.5859 4.27813C15.0312 5.20312 14.8578 4.10469 15.6094 3.06406C16.3609 2.02344 16.8812 1.50312 18.2109 4.10469C18.9047 5.55 20.2344 0.173437 21.275 1.90781C23.1828 5.0875 23.8766 3.35313 25.9 0.289062Z" fill="#89664C"/>
<path d="M30.2938 30.2937L30.2359 32.0281L32.2594 31.45L32.3172 29.6C32.3172 29.6578 31.1031 30.1203 30.2938 30.2937ZM28.7906 33.7625V35.439L31.0453 34.7453V33.0109C30.9875 32.9531 30.4094 33.3 28.7906 33.7625ZM6.76406 34.225L6.9375 35.8437L4.91407 35.3812L4.79844 33.7047C4.74063 33.7047 5.55 33.9937 6.76406 34.225Z" fill="#DBB471"/>
</g>
<defs>
<clipPath id="clip0_2_636">
<rect width="37" height="37" fill="white"/>
</clipPath>
</defs>
</svg>
